<svg xmlns="http://www.w3.org/2000/svg" xmlns:xlink="http://www.w3.org/1999/xlink" width="100%" height="100%" version="1.1" viewBox="0 0 273 274" xml:space="preserve" style="fill-rule:evenodd;clip-rule:evenodd;stroke-linejoin:round;stroke-miterlimit:2"><g><path d="M0,3920L0,3270L1300,3270L1300,4570L650,4570L0,4570L0,3920Z" transform="matrix(0.1,0,0,-0.1,0,457)" style="fill:#fff;fill-rule:nonzero"/></g><g><path d="M1437,4563C1433,4560 1430,4267 1430,3913L1430,3270L2730,3270L2730,4570L2087,4570C1733,4570 1440,4567 1437,4563Z" transform="matrix(0.1,0,0,-0.1,0,457)" style="fill:#fff;fill-rule:nonzero"/></g><g><path d="M0,2480L0,1830L1300,1830L1300,3130L650,3130L0,3130L0,2480Z" transform="matrix(0.1,0,0,-0.1,0,457)" style="fill:#fff;fill-rule:nonzero"/></g><g><path d="M1432,2483L1435,1835L2083,1832L2730,1830L2730,3130L2080,3130L1430,3130L1432,2483Z" transform="matrix(0.1,0,0,-0.1,0,457)" style="fill:#fff;fill-rule:nonzero"/></g></svg>