<svg xmlns="http://www.w3.org/2000/svg" xmlns:xlink="http://www.w3.org/1999/xlink" width="100%" height="100%" version="1.1" viewBox="0 0 67 67" xml:space="preserve" style="fill-rule:evenodd;clip-rule:evenodd;stroke-linejoin:round;stroke-miterlimit:2"><g><g transform="matrix(0.158297,0,0,0.158297,4.80731,3.54198) matrix(4.04138,0,0,4.04138,-61.4262,-43.2679)"><rect width="74.8" height="15.4" x="22.4" y="57.5" style="fill:#fff;fill-rule:nonzero"/></g><g transform="matrix(0.158297,0,0,0.158297,4.80731,3.54198) matrix(4.04138,0,0,4.04138,-61.4262,-43.2679)"><rect width="74.8" height="15.4" x="22.4" y="37.6" style="fill:#fff;fill-rule:nonzero"/></g><g><path d="M85.5,17L34.4,17C27.8,17 22.4,22.5 22.4,29.3L22.4,33.3L97.2,33.3L97.2,29.3C97.2,22.5 92,17 85.5,17Z" transform="matrix(0.158297,0,0,0.158297,4.80731,3.54198) matrix(4.04138,0,0,4.04138,-61.4262,-43.2679)" style="fill:#fff;fill-rule:nonzero"/></g><g><path d="M22.4,77.3L22.4,81.3C22.4,88.1 27.8,93.6 34.4,93.6L66.4,93.6L66.4,109.9L82.2,93.6L85.7,93.6C92.3,93.6 97.7,88.1 97.7,81.3L97.7,77.3L22.4,77.3Z" transform="matrix(0.158297,0,0,0.158297,4.80731,3.54198) matrix(4.04138,0,0,4.04138,-61.4262,-43.2679)" style="fill:#fff;fill-rule:nonzero"/></g></g></svg>